<svg width="17" height="19" viewBox="0 0 17 19" fill="none" xmlns="http://www.w3.org/2000/svg">
<rect width="16" height="16" rx="8" transform="matrix(1 0.000825538 -0.00128991 0.999999 1 1.5)" fill="#F55123"/>
<path d="M6.6598 12.275L6.66153 10.9322C7.12984 11.2744 7.67649 11.4457 8.30149 11.4462C8.69537 11.4466 9.00147 11.3622 9.21979 11.1931C9.44136 11.024 9.55234 10.7881 9.55273 10.4854C9.55313 10.1729 9.41673 9.93186 9.14351 9.76236C8.87354 9.59287 8.50093 9.50792 8.02567 9.50753L7.37626 9.50699L7.37778 8.32535L7.97837 8.32585C8.88983 8.3266 9.34595 8.02424 9.34673 7.41878C9.34746 6.84912 8.99789 6.564 8.29802 6.56342C7.82927 6.56303 7.37335 6.71402 6.93025 7.01639L6.93188 5.75663C7.42373 5.50964 7.99681 5.38641 8.6511 5.38695C9.36725 5.38754 9.92368 5.54914 10.3204 5.87173C10.7204 6.19432 10.92 6.61278 10.9194 7.12711C10.9182 8.04182 10.4536 8.61435 9.52555 8.84471L9.52552 8.86912C10.0202 8.93138 10.4106 9.11236 10.6967 9.41208C10.9828 9.70854 11.1255 10.0732 11.125 10.5062C11.1241 11.1605 10.8842 11.6779 10.4052 12.0583C9.92619 12.4388 9.26514 12.6287 8.42204 12.628C7.69938 12.6274 7.11197 12.5097 6.6598 12.275Z" fill="white"/>
</svg>
